<svg viewBox="0 0 359 110" fill="none" xmlns="http://www.w3.org/2000/svg" preserveAspectRatio="none">
<path d="M180.814 108.765L181.072 108.913L181.325 108.758L182.176 108.237L181.915 107.81L183.618 106.768L183.879 107.195L185.582 106.152L185.321 105.726L187.024 104.684L187.285 105.11L188.988 104.068L188.727 103.641L190.429 102.599L190.69 103.025L192.393 101.983L192.132 101.557L193.835 100.514L194.096 100.941L195.799 99.8984L195.538 99.4719L197.241 98.4296L197.502 98.856L199.205 97.8137L198.943 97.3873L200.646 96.3449L200.907 96.7714L202.61 95.7291L202.349 95.3026L204.052 94.2603L204.313 94.6867L206.016 93.6444L205.755 93.218L207.458 92.1757L207.719 92.6021L209.421 91.5598L209.16 91.1333L210.863 90.091L211.124 90.5175L212.827 89.4751L212.566 89.0487L214.269 88.0064L214.53 88.4328L216.233 87.3905L215.972 86.964L217.675 85.9217L217.936 86.3482L219.638 85.3059L219.377 84.8794L221.08 83.8371L221.341 84.2635L223.044 83.2212L222.783 82.7948L224.486 81.7524L224.747 82.1789L226.45 81.1366L226.189 80.7101L227.892 79.6678L228.153 80.0942L229.855 79.0519L229.594 78.6255L231.297 77.5832L231.558 78.0096L233.261 76.9673L233 76.5408L234.703 75.4985L234.964 75.925L236.667 74.8826L236.406 74.4562L238.108 73.4139L238.37 73.8403L240.072 72.798L239.811 72.3716L241.514 71.3292L241.775 71.7557L243.478 70.7134L243.217 70.2869L244.92 69.2446L245.181 69.671L246.884 68.6287L246.623 68.2023L248.325 67.16L248.586 67.5864L250.289 66.5441L250.028 66.1176L251.731 65.0753L251.992 65.5018L253.695 64.4594L253.434 64.033L255.137 62.9907L255.398 63.4171L257.101 62.3748L256.84 61.9484L258.542 60.906L258.803 61.3325L260.506 60.2902L260.245 59.8637L261.948 58.8214L262.209 59.2478L263.912 58.2055L263.651 57.7791L265.354 56.7368L265.615 57.1632L267.317 56.1209L267.056 55.6944L268.759 54.6521L269.02 55.0786L270.723 54.0363L270.462 53.6098L272.165 52.5675L272.426 52.9939L274.129 51.9516L273.868 51.5252L275.571 50.4828L275.832 50.9093L277.534 49.867L277.273 49.4405L278.976 48.3982L279.237 48.8247L280.94 47.7823L280.679 47.3559L282.382 46.3136L282.643 46.74L284.346 45.6977L284.085 45.2712L285.788 44.2289L286.049 44.6554L287.751 43.6131L287.49 43.1866L289.193 42.1443L289.454 42.5707L291.157 41.5284L290.896 41.102L292.599 40.0596L292.86 40.4861L294.563 39.4438L294.302 39.0173L296.004 37.975L296.265 38.4015L297.968 37.3591L297.707 36.9327L299.41 35.8904L299.671 36.3168L301.374 35.2745L301.113 34.848L302.816 33.8057L303.077 34.2322L304.78 33.1899L304.519 32.7634L306.221 31.7211L306.482 32.1475L308.185 31.1052L307.924 30.6788L309.627 29.6364L309.888 30.0629L311.591 29.0206L311.33 28.5941L313.033 27.5518L313.294 27.9783L314.997 26.9359L314.735 26.5095L316.438 25.4672L316.699 25.8936L318.402 24.8513L318.141 24.4249L319.844 23.3825L320.105 23.809L321.808 22.7667L321.547 22.3402L323.25 21.2979L323.511 21.7243L325.213 20.682L324.952 20.2556L326.655 19.2133L326.916 19.6397L328.619 18.5974L328.358 18.1709L330.061 17.1286L330.322 17.5551L332.025 16.5127L331.764 16.0863L333.467 15.044L333.728 15.4704L335.43 14.4281L335.169 14.0017L336.872 12.9593L337.133 13.3858L338.836 12.3435L338.575 11.917L340.278 10.8747L340.539 11.3012L342.242 10.2588L341.981 9.83239L343.683 8.79007L343.945 9.21651L345.647 8.17419L345.386 7.74774L347.089 6.70543L347.35 7.13187L349.053 6.08955L348.792 5.66311L350.495 4.62078L350.756 5.04724L352.459 4.00492L352.198 3.57847L353.9 2.53614L354.161 2.96259L355.013 2.44132L356.567 1.49022L354.745 1.51492L353.75 1.5284L353.757 2.02836L351.767 2.05533L351.761 1.55538L349.771 1.58235L349.778 2.08231L347.788 2.10928L347.781 1.60933L345.791 1.6363L345.798 2.13625L343.808 2.16323L343.802 1.66327L341.812 1.69025L341.819 2.1902L339.829 2.21718L339.822 1.71722L337.832 1.7442L337.839 2.24415L335.849 2.27112L335.843 1.77117L333.853 1.79814L333.86 2.2981L331.87 2.32507L331.863 1.82512L329.873 1.85209L329.88 2.35205L327.89 2.37902L327.884 1.87907L325.894 1.90604L325.901 2.406L323.911 2.43297L323.904 1.93302L321.914 1.95999L321.921 2.45994L319.932 2.48692L319.925 1.98696L317.935 2.01394L317.942 2.51389L315.952 2.54087L315.945 2.04091L313.956 2.06789L313.962 2.56784L311.973 2.59481L311.966 2.09486L309.976 2.12183L309.983 2.62179L307.993 2.64876L307.986 2.14881L305.997 2.17578L306.003 2.67574L304.014 2.70271L304.007 2.20276L302.017 2.22973L302.024 2.72968L300.034 2.75666L300.027 2.2567L298.038 2.28368L298.044 2.78363L296.055 2.81061L296.048 2.31065L294.058 2.33763L294.065 2.83758L292.075 2.86455L292.068 2.3646L290.079 2.39157L290.085 2.89153L288.096 2.9185L288.089 2.41855L286.099 2.44552L286.106 2.94548L284.116 2.97245L284.109 2.4725L282.12 2.49947L282.126 2.99942L280.137 3.0264L280.13 2.52644L278.14 2.55342L278.147 3.05337L276.157 3.08035L276.15 2.58039L274.161 2.60737L274.167 3.10732L272.178 3.13429L272.171 2.63434L270.181 2.66131L270.188 3.16127L268.198 3.18824L268.191 2.68829L266.202 2.71526L266.209 3.21522L264.219 3.24219L264.212 2.74224L262.222 2.76921L262.229 3.26917L260.239 3.29614L260.233 2.79618L258.243 2.82316L258.25 3.32311L256.26 3.35009L256.253 2.85013L254.263 2.87711L254.27 3.37706L252.28 3.40404L252.274 2.90408L250.284 2.93106L250.291 3.43101L248.301 3.45798L248.294 2.95803L246.304 2.985L246.311 3.48496L244.321 3.51193L244.315 3.01198L242.325 3.03895L242.332 3.53891L240.342 3.56588L240.335 3.06593L238.345 3.0929L238.352 3.59285L236.362 3.61983L236.356 3.11987L234.366 3.14685L234.373 3.6468L232.383 3.67378L232.376 3.17382L230.386 3.2008L230.393 3.70075L228.403 3.72772L228.397 3.22777L226.407 3.25474L226.414 3.7547L224.424 3.78167L224.417 3.28172L222.427 3.30869L222.434 3.80865L220.445 3.83562L220.438 3.33567L218.448 3.36264L218.455 3.86259L216.465 3.88957L216.458 3.38961L214.468 3.41659L214.475 3.91654L212.486 3.94352L212.479 3.44356L210.489 3.47054L210.496 3.97049L208.506 3.99747L208.499 3.49751L206.51 3.52448L206.516 4.02444L204.527 4.05141L204.52 3.55146L202.53 3.57843L202.537 4.07839L200.547 4.10536L200.54 3.60541L198.551 3.63238L198.557 4.13234L196.568 4.15931L196.561 3.65936L194.571 3.68633L194.578 4.18628L192.588 4.21326L192.581 3.7133L190.592 3.74028L190.598 4.24023L188.609 4.26721L188.602 3.76725L186.612 3.79423L186.619 4.29418L184.629 4.32115L184.622 3.8212L182.633 3.84817L182.639 4.34813L180.65 4.3751L180.643 3.87515L178.653 3.90212L178.66 4.40208L176.67 4.42905L176.663 3.9291L174.674 3.95607L174.68 4.45603L172.691 4.483L172.684 3.98305L170.694 4.01002L170.701 4.50997L168.711 4.53695L168.704 4.03699L166.715 4.06397L166.721 4.56392L164.732 4.5909L164.725 4.09094L162.735 4.11792L162.742 4.61787L160.752 4.64484L160.745 4.14489L158.756 4.17186L158.762 4.67182L156.773 4.69879L156.766 4.19884L154.776 4.22581L154.783 4.72577L152.793 4.75274L152.786 4.25279L150.797 4.27976L150.803 4.77971L148.814 4.80669L148.807 4.30674L146.817 4.33371L146.824 4.83366L144.834 4.86064L144.827 4.36068L142.838 4.38766L142.844 4.88761L140.855 4.91459L140.848 4.41463L138.858 4.44161L138.865 4.94156L136.875 4.96853L136.868 4.46858L134.879 4.49555L134.885 4.99551L132.896 5.02248L132.889 4.52253L130.899 4.5495L130.906 5.04946L128.916 5.07643L128.909 4.57648L126.92 4.60345L126.926 5.1034L124.937 5.13038L124.93 4.63042L122.94 4.6574L122.947 5.15735L120.957 5.18433L120.95 4.68437L118.961 4.71135L118.967 5.2113L116.978 5.23828L116.971 4.73832L114.981 4.7653L114.988 5.26525L112.998 5.29222L112.991 4.79227L111.002 4.81924L111.008 5.3192L109.019 5.34617L109.012 4.84622L107.022 4.87319L107.029 5.37315L105.039 5.40012L105.032 4.90017L103.043 4.92714L103.049 5.42709L101.06 5.45407L101.053 4.95411L99.0632 4.98109L99.07 5.48104L97.0802 5.50802L97.0734 5.00806L95.0837 5.03504L95.0905 5.53499L93.1007 5.56196L93.0939 5.06201L91.1042 5.08898L91.111 5.58894L89.1212 5.61591L89.1144 5.11596L87.1247 5.14293L87.1315 5.64289L85.1417 5.66986L85.135 5.16991L83.1452 5.19688L83.152 5.69684L81.1622 5.72381L81.1555 5.22386L79.1657 5.25083L79.1725 5.75078L77.1827 5.77776L77.176 5.2778L75.1862 5.30478L75.193 5.80473L73.2033 5.83171L73.1965 5.33175L71.2067 5.35873L71.2135 5.85868L69.2238 5.88565L69.217 5.3857L67.2272 5.41267L67.234 5.91263L65.2443 5.9396L65.2375 5.43965L63.2477 5.46662L63.2545 5.96658L61.2648 5.99355L61.258 5.4936L59.2683 5.52057L59.275 6.02053L57.2853 6.0475L57.2785 5.54755L55.2888 5.57452L55.2955 6.07447L53.3058 6.10145L53.299 5.60149L51.3093 5.62847L51.316 6.12842L49.3263 6.1554L49.3195 5.65544L47.3298 5.68242L47.3366 6.18237L45.3468 6.20934L45.34 5.70939L43.3503 5.73636L43.3571 6.23632L41.3673 6.26329L41.3605 5.76334L39.3708 5.79031L39.3776 6.29027L37.3878 6.31724L37.381 5.81729L35.3913 5.84426L35.3981 6.34421L33.4083 6.37119L33.4015 5.87123L31.4118 5.89821L31.4186 6.39816L29.4288 6.42514L29.4221 5.92518L27.4323 5.95216L27.4391 6.45211L25.4493 6.47909L25.4426 5.97913L23.4528 6.00611L23.4596 6.50606L21.4698 6.53303L21.4631 6.03308L19.4733 6.06005L19.4801 6.56001L17.4904 6.58698L17.4836 6.08703L15.4938 6.114L15.5006 6.61396L13.5109 6.64093L13.5041 6.14098L11.5143 6.16795L11.5211 6.6679L9.53137 6.69488L9.52459 6.19492L7.53485 6.2219L7.54162 6.72185L5.55188 6.74883L5.5451 6.24887L4.55059 6.26235L2.72898 6.28705L4.308 7.19568L5.17323 7.69357L5.4226 7.2602L7.15305 8.25598L6.90368 8.68934L8.63414 9.68512L8.8835 9.25175L10.614 10.2475L10.3646 10.6809L12.095 11.6767L12.3444 11.2433L14.0749 12.2391L13.8255 12.6725L15.556 13.6682L15.8053 13.2349L17.5358 14.2306L17.2864 14.664L19.0169 15.6598L19.2662 15.2264L20.9967 16.2222L20.7473 16.6556L22.4778 17.6513L22.7272 17.218L24.4576 18.2138L24.2082 18.6471L25.9387 19.6429L26.1881 19.2095L27.9185 20.2053L27.6691 20.6387L29.3996 21.6345L29.649 21.2011L31.3794 22.1969L31.13 22.6302L32.8605 23.626L33.1099 23.1926L34.8403 24.1884L34.5909 24.6218L36.3214 25.6176L36.5708 25.1842L38.3013 26.18L38.0519 26.6133L39.7823 27.6091L40.0317 27.1758L41.7622 28.1715L41.5128 28.6049L43.2432 29.6007L43.4926 29.1673L45.2231 30.1631L44.9737 30.5965L46.7042 31.5922L46.9535 31.1589L48.684 32.1547L48.4346 32.588L50.1651 33.5838L50.4144 33.1504L52.1449 34.1462L51.8955 34.5796L53.626 35.5753L53.8753 35.142L55.6058 36.1378L55.3564 36.5711L57.0869 37.5669L57.3362 37.1335L59.0667 38.1293L58.8173 38.5627L60.5478 39.5585L60.7972 39.1251L62.5276 40.1209L62.2782 40.5542L64.0087 41.55L64.2581 41.1166L65.9885 42.1124L65.7392 42.5458L67.4696 43.5416L67.719 43.1082L69.4494 44.104L69.2001 44.5373L70.9305 45.5331L71.1799 45.0997L72.9103 46.0955L72.661 46.5289L74.3914 47.5247L74.6408 47.0913L76.3712 48.0871L76.1219 48.5204L77.8523 49.5162L78.1017 49.0829L79.8321 50.0786L79.5828 50.512L81.3132 51.5078L81.5626 51.0744L83.2931 52.0702L83.0437 52.5036L84.7741 53.4993L85.0235 53.0659L86.754 54.0617L86.5046 54.4951L88.235 55.4909L88.4844 55.0575L90.2149 56.0533L89.9655 56.4867L91.6959 57.4824L91.9453 57.0491L93.6758 58.0448L93.4264 58.4782L95.1568 59.474L95.4062 59.0406L97.1367 60.0364L96.8873 60.4698L98.6177 61.4655L98.8671 61.0322L100.598 62.0279L100.348 62.4613L102.079 63.4571L102.328 63.0237L104.058 64.0195L103.809 64.4529L105.54 65.4486L105.789 65.0153L107.519 66.011L107.27 66.4444L109 67.4402L109.25 67.0068L110.98 68.0026L110.731 68.436L112.461 69.4317L112.711 68.9984L114.441 69.9941L114.192 70.4275L115.922 71.4233L116.172 70.9899L117.902 71.9857L117.653 72.4191L119.383 73.4149L119.633 72.9815L121.363 73.9773L121.114 74.4106L122.844 75.4064L123.093 74.973L124.824 75.9688L124.575 76.4022L126.305 77.398L126.554 76.9646L128.285 77.9604L128.035 78.3937L129.766 79.3895L130.015 78.9561L131.746 79.9519L131.496 80.3853L133.227 81.3811L133.476 80.9477L135.207 81.9435L134.957 82.3768L136.688 83.3726L136.937 82.9392L138.668 83.935L138.418 84.3684L140.149 85.3642L140.398 84.9308L142.128 85.9266L141.879 86.3599L143.61 87.3557L143.859 86.9223L145.589 87.9181L145.34 88.3515L147.07 89.3473L147.32 88.9139L149.05 89.9097L148.801 90.343L150.531 91.3388L150.781 90.9055L152.511 91.9012L152.262 92.3346L153.992 93.3304L154.242 92.897L155.972 93.8928L155.723 94.3262L157.453 95.3219L157.703 94.8886L159.433 95.8843L159.184 96.3177L160.914 97.3135L161.163 96.8801L162.894 97.8759L162.644 98.3093L164.375 99.305L164.624 98.8717L166.355 99.8674L166.105 100.301L167.836 101.297L168.085 100.863L169.816 101.859L169.566 102.292L171.297 103.288L171.546 102.855L173.277 103.851L173.027 104.284L174.758 105.28L175.007 104.846L176.737 105.842L176.488 106.275L178.219 107.271L178.468 106.838L180.198 107.834L179.949 108.267L180.814 108.765Z" fill="none" stroke="black" stroke-dasharray="2 2"/>
</svg>
